<svg width="24" height="24" xmlns="http://www.w3.org/2000/svg" id="block-resize">
<g id="surface1">
 <g>
  <title>background</title>
  <rect fill="none" id="canvas_background" height="26" width="26" y="-1" x="-1"/>
 </g>
 <g>
  <title>Layer 1</title>
  <path id="svg_1" d="m19,12l-2,0l0,3l-3,0l0,2l5,0l0,-5zm-12,-3l3,0l0,-2l-5,0l0,5l2,0l0,-3zm14,-6l-18,0c-1.1,0 -2,0.9 -2,2l0,14c0,1.1 0.9,2 2,2l18,0c1.1,0 2,-0.9 2,-2l0,-14c0,-1.1 -0.9,-2 -2,-2zm0,16.01l-18,0l0,-14.02l18,0l0,14.02z"/>
  <path id="svg_2" fill="none" d="m0,0l24,0l0,24l-24,0l0,-24z"/>
  <line stroke-linecap="undefined" stroke-linejoin="undefined" id="svg_6" y2="0.453125" x2="-0.5" y1="24.453125" x1="24.5" stroke-width="3" stroke="#fc0505" fill="none"/>
  <line stroke-linecap="undefined" stroke-linejoin="undefined" id="svg_7" y2="-173.546875" x2="-295.5" y1="-173.546875" x1="-294.5" stroke-width="3" stroke="#fc0505" fill="none"/>
 </g>
 </g>
</svg>