<svg width="24" height="24" xmlns="http://www.w3.org/2000/svg">
 <g id="surface1">
  <g id="svg_4">
   <title>background</title>
   <rect x="-1" y="-1" width="26" height="26" id="canvas_background" fill="none"/>
  </g>
  <g id="svg_5">
   <title>Layer 1</title>
   <path d="m0,0l24,0l0,24l-24,0l0,-24z" fill="none" id="svg_1"/>
   <path d="m12.01,5.5l-2.01,2.5l4,0l-1.99,-2.5zm5.99,4.5l0,4l2.5,-1.99l-2.5,-2.01zm-12,0l-2.5,2.01l2.5,1.99l0,-4zm8,6l-4,0l2.01,2.5l1.99,-2.5zm7,-13l-18,0c-1.1,0 -2,0.9 -2,2l0,14c0,1.1 0.9,2 2,2l18,0c1.1,0 2,-0.9 2,-2l0,-14c0,-1.1 -0.9,-2 -2,-2zm0,16.01l-18,0l0,-14.02l18,0l0,14.02z" id="svg_2"/>
   <line fill="none" stroke="#000000" stroke-width="3" x1="22.5" y1="20.453125" x2="-10.5" y2="-4.546875" id="svg_3" stroke-linejoin="undefined" stroke-linecap="undefined"/>
  </g>
 </g>

</svg>