<svg width="24" height="24" xmlns="http://www.w3.org/2000/svg">
 <g>
  <title>background</title>
  <rect x="-1" y="-1" width="26" height="26" id="canvas_background" fill="none"/>
 </g>

 <g>
  <title>Layer 1</title>
  <path d="m0,0l24,0l0,24l-24,0l0,-24z" fill="none" id="svg_1"/>
  <path d="m4,6l-2,0l0,14c0,1.1 0.9,2 2,2l14,0l0,-2l-14,0l0,-14zm16,-4l-12,0c-1.1,0 -2,0.9 -2,2l0,12c0,1.1 0.9,2 2,2l12,0c1.1,0 2,-0.9 2,-2l0,-12c0,-1.1 -0.9,-2 -2,-2zm-1,9l-4,0l0,4l-2,0l0,-4l-4,0l0,-2l4,0l0,-4l2,0l0,4l4,0l0,2z" id="svg_2"/>
  <line fill="none" stroke="#000000" stroke-width="3" fill-opacity="null" x1="1.5" y1="-0.546875" x2="34.5" y2="37.453125" id="svg_3" stroke-linejoin="undefined" stroke-linecap="undefined"/>
 </g>
</svg>