<svg width="24" height="24" xmlns="http://www.w3.org/2000/svg">
 <g>
  <title>background</title>
  <rect x="-1" y="-1" width="26" height="26" id="canvas_background" fill="none"/>
 </g>

 <g>
  <title>Layer 1</title>
  <path d="m24,0l-24,0l0,24l24,0l0,-24z" fill="none" id="svg_1"/>
  <path d="m17.66,7.93l-5.66,-5.66l-5.66,5.66c-3.12,3.12 -3.12,8.19 0,11.31c1.56,1.56 3.61,2.34 5.66,2.34c2.05,0 4.1,-0.78 5.66,-2.34c3.12,-3.12 3.12,-8.19 0,-11.31zm-5.66,11.66c-1.6,0 -3.11,-0.62 -4.24,-1.76c-1.14,-1.14 -1.76,-2.64 -1.76,-4.24s0.62,-3.11 1.76,-4.24l4.24,-4.25l0,14.49z" id="svg_2"/>
  <line fill="none" stroke="#000000" stroke-width="3" x1="1.5" y1="-0.35" x2="37.5" y2="38.65" id="svg_3" stroke-linejoin="undefined" stroke-linecap="undefined"/>
 </g>
</svg>