<svg width="24" height="24" xmlns="http://www.w3.org/2000/svg">
 <g id="surface1">
  <g id="svg_3">
   <title>background</title>
   <rect x="-1" y="-1" width="26" height="26" id="canvas_background" fill="none"/>
  </g>
  <g id="svg_4">
   <title>Layer 1</title>
   <path d="m19,12l-2,0l0,3l-3,0l0,2l5,0l0,-5zm-12,-3l3,0l0,-2l-5,0l0,5l2,0l0,-3zm14,-6l-18,0c-1.1,0 -2,0.9 -2,2l0,14c0,1.1 0.9,2 2,2l18,0c1.1,0 2,-0.9 2,-2l0,-14c0,-1.1 -0.9,-2 -2,-2zm0,16.01l-18,0l0,-14.02l18,0l0,14.02z" id="svg_1"/>
   <path d="m0,0l24,0l0,24l-24,0l0,-24z" fill="none" id="svg_2"/>
   <line fill="none" stroke="#000000" stroke-width="3" x1="24.5" y1="24.453125" x2="-0.5" y2="0.453125" id="svg_6" stroke-linejoin="undefined" stroke-linecap="undefined"/>
   <line fill="none" stroke="#fc0505" stroke-width="3" x1="-294.5" y1="-173.546875" x2="-295.5" y2="-173.546875" id="svg_7" stroke-linejoin="undefined" stroke-linecap="undefined"/>
  </g>
 </g>

</svg>